<svg xmlns="http://www.w3.org/2000/svg" viewBox="0 0 512 512">
  <path d="M213.335 80.316L133.089.069 52.842 80.316H0v30h52.842l80.247 80.246 80.246-80.246H512v-30zm-80.246 67.819l-52.82-52.819 52.82-52.82 52.819 52.82zM379.449 160.753L299.203 241H0v30h299.203l80.246 80.247L459.695 271H512v-30h-52.305zm0 148.067L326.629 256l52.82-52.82L432.27 256z"/>
  <path d="M256 321.438l-80.246 80.246H0v30h175.753L256 511.931l80.246-80.247H512v-30H336.246zm0 148.066l-52.82-52.82L256 363.865l52.82 52.819z"/>
</svg>
